<svg width="23" height="23" viewBox="0 0 23 23" fill="none" xmlns="http://www.w3.org/2000/svg">
<g clip-path="url(#clip0_101_112)">
<path d="M11.8001 9.22221L10.3575 9.98923C9.87951 10.2434 9.69804 10.837 9.95221 11.315C10.2064 11.793 10.7999 11.9745 11.278 11.7203L11.855 11.4135C12.333 11.1593 12.9266 11.3408 13.1807 11.8188C13.4349 12.2968 13.2534 12.8904 12.7754 13.1446L11.3329 13.9116M10.3392 9.2588L10.646 9.83583M12.4869 13.298L12.7937 13.875M15.0286 9.72605L15.0344 9.72298M8.10433 13.4078L8.1101 13.4047M4.63035 12.4423L6.9621 16.8277C7.30576 17.474 7.47759 17.7972 7.73464 17.9772C7.96074 18.1355 8.23116 18.2182 8.50714 18.2134C8.82088 18.2079 9.14405 18.036 9.79038 17.6924L17.6379 13.5198C18.2842 13.1761 18.6074 13.0043 18.7874 12.7472C18.9457 12.5211 19.0284 12.2507 19.0236 11.9747C19.0181 11.661 18.8463 11.3378 18.5026 10.6915L16.1709 6.30611C15.8272 5.65978 15.6554 5.33662 15.3983 5.15663C15.1722 4.99832 14.9018 4.91564 14.6258 4.92046C14.3121 4.92593 13.9889 5.09776 13.3426 5.44142L5.49504 9.61403C4.84871 9.95769 4.52555 10.1295 4.34556 10.3866C4.18724 10.6127 4.10457 10.8831 4.10939 11.1591C4.11486 11.4728 4.28669 11.796 4.63035 12.4423ZM15.3171 9.57264C15.4019 9.73198 15.3414 9.92983 15.182 10.0146C15.0227 10.0993 14.8248 10.0388 14.7401 9.87945C14.6554 9.72011 14.7159 9.52226 14.8752 9.43753C15.0346 9.35281 15.2324 9.4133 15.3171 9.57264ZM8.39284 13.2544C8.47756 13.4137 8.41707 13.6116 8.25773 13.6963C8.09839 13.781 7.90054 13.7205 7.81582 13.5612C7.73109 13.4018 7.79158 13.204 7.95092 13.1192C8.11026 13.0345 8.30812 13.095 8.39284 13.2544Z" stroke="#FF5555" stroke-width="1.30704" stroke-linecap="round" stroke-linejoin="round"/>
</g>
<defs>
<clipPath id="clip0_101_112">
<rect width="15.6845" height="15.6845" fill="white" transform="translate(0.960449 8.32434) rotate(-28)"/>
</clipPath>
</defs>
</svg>
