<svg width="24" height="25" viewBox="0 0 24 25" fill="none" xmlns="http://www.w3.org/2000/svg">
<path d="M12 2.97607L10.6985 8.18206C10.4445 9.19792 10.3176 9.70585 10.0531 10.1192C9.81915 10.4848 9.50868 10.7952 9.14309 11.0292C8.72978 11.2936 8.22185 11.4206 7.20599 11.6746L2 12.9761L7.20599 14.2776C8.22185 14.5315 8.72978 14.6585 9.14309 14.923C9.50868 15.1569 9.81915 15.4674 10.0531 15.833C10.3176 16.2463 10.4445 16.7542 10.6985 17.7701L12 22.9761L13.3015 17.7701C13.5555 16.7542 13.6824 16.2463 13.9469 15.833C14.1808 15.4674 14.4913 15.1569 14.8569 14.923C15.2702 14.6585 15.7782 14.5315 16.794 14.2776L22 12.9761L16.794 11.6746C15.7782 11.4206 15.2702 11.2936 14.8569 11.0292C14.4913 10.7952 14.1808 10.4848 13.9469 10.1192C13.6824 9.70585 13.5555 9.19792 13.3015 8.18207L12 2.97607Z" stroke="white" stroke-width="2" stroke-linecap="round" stroke-linejoin="round"/>
</svg>
