<svg width="14" height="18" viewBox="0 0 14 18" fill="none" xmlns="http://www.w3.org/2000/svg">
<path fill-rule="evenodd" clip-rule="evenodd" d="M11.0105 5.88862C11.1586 5.86425 11.3102 5.91191 11.4186 6.01677C12.6792 7.23673 13.3782 8.8695 13.3867 10.6143C13.404 14.1525 10.5397 17.031 7.00162 17.031C4.07494 17.031 1.51216 15.0496 0.769391 12.2126C0.628638 11.6743 0.555984 11.1366 0.553431 10.6143C0.54842 9.5889 0.783142 8.60319 1.25109 7.68463C1.71161 6.78158 2.39139 5.99082 3.21704 5.39762C3.22183 5.39417 3.22672 5.39081 3.23164 5.38752C3.26208 5.36739 3.29457 5.34353 3.32898 5.31826L3.33252 5.31566C3.33598 5.31312 3.33944 5.31058 3.34291 5.30803C3.3567 5.2979 3.3705 5.28776 3.38438 5.27772C4.69718 4.33502 5.51744 2.87363 5.6361 1.26731C5.64779 1.10878 5.73814 0.967053 5.87677 0.88975C6.0154 0.812478 6.18373 0.809915 6.32537 0.882915C7.95229 1.72167 9.15097 3.21651 9.61394 4.98411C9.75475 5.52226 9.82741 6.05996 9.82996 6.58248C9.83129 6.8548 9.81487 7.12639 9.7809 7.39637C10.133 7.02263 10.4317 6.59985 10.6663 6.1398C10.7345 6.00608 10.8622 5.91289 11.0105 5.88862ZM6.67853 12.6631C7.71824 12.6631 8.55696 11.8202 8.55188 10.7805C8.5468 9.74085 7.69984 8.89802 6.66013 8.89802C5.62043 8.89802 4.78171 9.74085 4.78679 10.7805C4.79187 11.8202 5.63883 12.6631 6.67853 12.6631Z" fill="white"/>
</svg>
