<svg width="32" height="15" viewBox="0 0 32 15" fill="none" xmlns="http://www.w3.org/2000/svg">
<path d="M3.0244 11.4816C3.52086 11.4816 3.95959 11.3909 4.3406 11.2095C4.72156 11.0185 5.01136 10.7321 5.20998 10.3502L5.21467 11.3097L7.21961 11.3097L7.1814 3.49054L5.03325 3.49054L5.05558 8.05888C5.05777 8.5076 4.92588 8.87039 4.65991 9.14726C4.39389 9.41459 4.05084 9.54825 3.63075 9.54825C3.21067 9.54825 2.86631 9.41459 2.59768 9.14726C2.329 8.87039 2.19357 8.5076 2.19138 8.05888L2.16905 3.49054L0.0209009 3.49054L0.0440661 8.23073C0.0488251 9.20455 0.305679 9.99219 0.814627 10.5937C1.33308 11.1856 2.06967 11.4816 3.0244 11.4816Z" fill="white"/>
<path d="M8.74802 2.78882L10.8962 2.78882L10.8857 0.640691L8.73752 0.640691L8.74802 2.78882ZM8.78966 11.3097H10.9378L10.8996 3.49054L8.75145 3.49054L8.78966 11.3097Z" fill="white"/>
<path d="M13.455 11.3097H15.6031L15.574 5.35224H17.2495L17.2404 3.49054H15.5649L15.5643 3.37597C15.5609 2.67902 15.965 2.33055 16.7765 2.33055C16.9102 2.33055 17.0678 2.34487 17.2493 2.37351L17.2404 0.540446C17.0205 0.49271 16.7674 0.468842 16.481 0.468842C15.5072 0.468842 14.7494 0.721843 14.2077 1.22785C13.6755 1.73385 13.4117 2.44989 13.4162 3.37597L13.4167 3.49054H12.0992L12.1083 5.35224L13.4258 5.35224L13.455 11.3097Z" fill="white"/>
<path d="M18.3836 11.3097H20.5318L20.5112 7.09938C20.5083 6.517 20.6685 6.06828 20.9915 5.75323C21.3145 5.42862 21.7386 5.26632 22.2637 5.26632H22.9368L22.9277 3.40461L22.4694 3.40461C21.9921 3.40461 21.5676 3.49531 21.1962 3.67671C20.8342 3.84856 20.5542 4.17794 20.3561 4.66484L20.3503 3.49054L18.3454 3.49054L18.3836 11.3097Z" fill="white"/>
<path d="M25.1406 14.4889C26.5727 14.4889 27.6046 13.6726 28.2363 12.0401L31.5457 3.49054L29.24 3.49054L27.4171 8.51715L25.5452 3.49054L23.2395 3.49054L26.3567 11.3097L26.2151 11.6391C26.1018 11.8969 25.9549 12.126 25.7745 12.3265C25.5941 12.527 25.2939 12.6272 24.8738 12.6272C24.5301 12.6272 24.2052 12.5795 23.8992 12.484L23.9079 14.2455C24.0706 14.3314 24.2571 14.3935 24.4673 14.4316C24.6871 14.4698 24.9115 14.4889 25.1406 14.4889Z" fill="white"/>
</svg>
